<?xml version="1.0" encoding="UTF-8"?>
<svg version="1.1" xmlns="http://www.w3.org/2000/svg" width="1563" height="1563">
<path d="M0 0 C1.47791574 -0.00706989 2.95583118 -0.01420252 4.43374634 -0.02139282 C9.13291939 -0.0409096 13.83204021 -0.04608561 18.53125 -0.046875 C19.73607151 -0.04731686 19.73607151 -0.04731686 20.96523285 -0.04776764 C46.43014 -0.04927477 71.70205615 0.32257903 97.03125 3.203125 C98.38431244 3.35584869 98.38431244 3.35584869 99.76470947 3.51165771 C179.98135959 12.65182428 258.77736412 30.90617621 385.03125 97.203125 C385.61438965 97.63077148 386.1975293 98.05841797 386.79833984 98.49902344 C395.76388223 105.12845612 404.18864846 112.27160507 412.03125 120.203125 C411.55929199 120.48397949 411.08733398 120.76483398 410.60107422 121.05419922 C396.05950737 129.7396759 382.45120092 138.60827571 370.03125 150.203125 C368.66082524 151.39590211 367.28604881 152.58370432 365.90625 153.765625 C358.09799972 160.60371192 351.50780203 168.10455905 345.03125 176.203125 C344.41894531 176.925 343.80664062 177.646875 343.17578125 178.390625 C326.69560803 198.06844377 314.74725686 220.94787468 304.01757812 244.10693359 C303.05350702 246.15582333 302.05231502 248.18212439 301.03125 250.203125 C299.09653479 247.30105218 298.43034661 245.44289536 297.59375 242.1171875 C297.21089844 240.59544922 297.21089844 240.59544922 296.8203125 239.04296875 C296.55992187 237.98207031 296.29953125 236.92117188 296.03125 235.828125 C295.64066406 234.29478516 295.64066406 234.29478516 295.2421875 232.73046875 C292.29426712 220.86434478 290.63928417 209.31405883 290.65625 197.078125 C290.65713623 195.91031494 290.65802246 194.74250488 290.65893555 193.53930664 C290.79628584 183.37608183 292.28872748 173.96600424 295.03125 164.203125 C295.33933594 163.08679688 295.64742187 161.97046875 295.96484375 160.8203125 C296.61205364 158.59688332 297.28726388 156.39562956 298.03125 154.203125 C279.16434968 163.66159757 261.45027801 174.85959757 244.80126953 187.83007812 C243.09636986 189.15260996 241.377834 190.45449283 239.65234375 191.75 C227.91907967 200.58890719 216.929582 210.2078343 206.26806641 220.30761719 C203.33518148 223.08220913 200.37486767 225.78620381 197.2890625 228.390625 C194.92070208 230.40064334 192.81162637 232.41375567 190.84375 234.828125 C187.7454122 238.47898805 184.43659628 241.84335797 181.03125 245.203125 C176.48085871 249.7097358 172.18053793 254.32209891 168.03125 259.203125 C167.08080317 260.29156774 166.12883195 261.37868025 165.17578125 262.46484375 C152.65322827 276.75913156 140.88615088 291.47463508 129.73242188 306.86230469 C128.12844552 309.06938352 126.511726 311.26642057 124.890625 313.4609375 C105.21765124 340.21903072 87.52109201 368.3945875 71.03125 397.203125 C70.16862549 398.70770264 70.16862549 398.70770264 69.28857422 400.24267578 C60.06342279 416.38343607 51.39752385 432.78811569 42.97265625 449.3560791 C42.04149988 451.18301467 41.10557636 453.00742265 40.16796875 454.83105469 C30.37370528 473.89219449 21.46386974 493.27215767 12.90527344 512.91699219 C11.19074498 516.84799626 9.44616113 520.76472688 7.6953125 524.6796875 C-7.1592545 558.0944965 -19.42384967 592.52642074 -30.96875 627.203125 C-33.80194874 624.77046796 -34.85665989 622.42385207 -36.140625 618.9453125 C-36.54982178 617.8615332 -36.95901855 616.77775391 -37.38061523 615.66113281 C-38.04299194 613.88754395 -38.04299194 613.88754395 -38.71875 612.078125 C-61.89964933 551.30411142 -95.09252343 494.2802587 -130.96875 440.203125 C-132.15382928 438.40637098 -133.33872648 436.60949686 -134.5234375 434.8125 C-142.46744286 422.79673721 -150.65680246 410.96656385 -158.96875 399.203125 C-160.15119784 397.52615177 -161.33349051 395.84906913 -162.515625 394.171875 C-165.33025044 390.18010669 -168.14841045 386.19085784 -170.96875 382.203125 C-170.63875 381.543125 -170.30875 380.883125 -169.96875 380.203125 C-167.64990234 379.85595703 -167.64990234 379.85595703 -164.5546875 379.7109375 C-163.41265869 379.6480957 -162.27062988 379.58525391 -161.09399414 379.52050781 C-159.85641357 379.45702148 -158.61883301 379.39353516 -157.34375 379.328125 C-136.85348861 378.05082355 -117.50814468 374.49540354 -97.96875 368.203125 C-97.27797363 367.98462891 -96.58719727 367.76613281 -95.87548828 367.54101562 C-77.59923912 361.6381277 -59.98171868 352.15337291 -44.96875 340.203125 C-44.43137207 339.77708984 -43.89399414 339.35105469 -43.34033203 338.91210938 C7.45668277 298.29856482 31.60643319 234.91315957 39.19384766 171.79052734 C40.27054483 161.95289761 40.73254317 152.09135105 41.03125 142.203125 C40.33902344 142.96753906 39.64679688 143.73195313 38.93359375 144.51953125 C5.94138834 180.7507629 -34.31592133 209.25507677 -84.96875 212.203125 C-121.90603586 213.73448207 -121.90603586 213.73448207 -132.96875 208.203125 C-128.89578449 179.69236646 -102.25009928 152.89013512 -80.3815918 136.1418457 C-78.5910212 134.80872927 -76.78517848 133.50077696 -74.96875 132.203125 C-74.30713867 131.72955566 -73.64552734 131.25598633 -72.96386719 130.76806641 C-60.86488176 122.21086596 -48.07511582 115.09033385 -34.96875 108.203125 C-81.08429996 106.9996239 -136.99917604 113.52465702 -172.2734375 146.34765625 C-185.26991426 159.97625736 -191.15697849 177.53085889 -190.96875 196.203125 C-189.97228751 213.69474748 -185.17933178 225.76484907 -172.09375 238.015625 C-149.47298012 257.23634051 -122.68232345 259.80398695 -93.96875 258.203125 C-77.20880288 256.71665519 -60.98467621 252.18032109 -44.96875 247.203125 C-44.19515137 246.96368164 -43.42155273 246.72423828 -42.62451172 246.47753906 C-31.86682392 243.07673755 -21.62111115 238.53015115 -11.34375 233.89746094 C-10.31636719 233.43500977 -9.28898437 232.97255859 -8.23046875 232.49609375 C-6.85314575 231.86997192 -6.85314575 231.86997192 -5.44799805 231.23120117 C-3.28512079 230.33431529 -1.25321001 229.69072121 1.03125 229.203125 C-1.52294017 234.49768778 -4.24289775 239.45864374 -7.53125 244.328125 C-7.96542236 244.97136719 -8.39959473 245.61460937 -8.84692383 246.27734375 C-39.20298414 290.70031656 -84.23945773 311.29367505 -136.21484375 321.36328125 C-181.02021074 329.53461636 -226.91611961 329.46105379 -265.91796875 303.21875 C-292.1176902 284.45084496 -308.39315786 257.22498372 -314.390625 225.73828125 C-320.77142017 186.72058103 -307.22096708 148.80878816 -284.58447266 117.2890625 C-271.87291444 100.0745619 -256.93016036 84.26319651 -239.72363281 71.50927734 C-237.95458594 70.19258274 -236.20718858 68.85064065 -234.4609375 67.50390625 C-224.471745 59.88680674 -213.87532471 53.41721244 -202.96875 47.203125 C-202.2061084 46.76613281 -201.4434668 46.32914063 -200.65771484 45.87890625 C-140.81470447 11.95873468 -68.13713661 0.20305435 0 0 Z M61.03125 49.203125 C71.71267467 75.03087854 85.25663334 99.65991171 111.51953125 112.16796875 C128.79423043 119.28740154 148.33698901 114.87183793 164.94189453 108.16040039 C174.8395545 103.98607699 184.0855157 99.13769835 193.03125 93.203125 C193.75344727 92.72456055 194.47564453 92.24599609 195.21972656 91.75292969 C199.87813785 88.64533394 204.52062887 85.52237314 209.03125 82.203125 C209.03125 81.873125 209.03125 81.543125 209.03125 81.203125 C190.32621057 77.02569479 171.62009859 72.85310104 152.91269302 68.6862793 C144.22676211 66.75148695 135.5411908 64.81510706 126.85644531 62.875 C119.28778468 61.18422215 111.71846941 59.49641237 104.14834952 57.81217957 C100.13920331 56.9200983 96.13040315 56.02652331 92.12238312 55.12939453 C88.3508934 54.28525831 84.57854195 53.44508967 80.80548859 52.60797119 C79.42003765 52.29984841 78.03490938 51.99027065 76.65013123 51.67913818 C74.76065004 51.25483629 72.86988733 50.83625324 70.97906494 50.41796875 C69.9208466 50.18198975 68.86262825 49.94601074 67.77234268 49.70288086 C64.83977439 49.0835495 64.83977439 49.0835495 61.03125 49.203125 Z " fill="#FF5757" transform="translate(812.96875,531.796875)"/>
<path d="M0 0 C4.09456635 1.4071715 7.31869439 3.52800188 10.86401367 5.98120117 C11.97309586 6.7297361 11.97309586 6.7297361 13.10458374 7.49339294 C14.68069019 8.55860508 16.25367469 9.62844879 17.82376099 10.70251465 C21.08878192 12.93580648 24.36879694 15.14656974 27.64860535 17.35806274 C29.26246351 18.44631682 30.87559863 19.53564395 32.48799133 20.62606812 C40.20922185 25.84299414 48.05415441 30.84058582 55.97436523 35.7487793 C58.23141033 37.15535887 60.47637514 38.57984957 62.71948242 40.00854492 C71.3977973 45.53393406 80.13330704 50.94306321 88.97070312 56.21044922 C94.45904752 59.48249798 99.92414466 62.7901661 105.37698364 66.12106323 C120.47433831 75.34122872 135.70734964 84.28368196 151.07104492 93.05541992 C152.89937771 94.10323451 154.72751151 95.15139644 156.55541992 96.19995117 C161.72183703 99.16138952 166.89563737 102.10972961 172.07104492 105.05541992 C172.97886719 105.57313965 173.88668945 106.09085937 174.82202148 106.62426758 C187.54077222 113.873559 200.33667272 120.96014011 213.22729492 127.89916992 C216.8640519 129.85778937 220.49012225 131.83308762 224.10229492 133.83666992 C242.51801208 144.03472759 261.29976326 153.53345084 280.07104492 163.05541992 C280.87568176 163.46375061 281.6803186 163.8720813 282.50933838 164.29278564 C301.80326294 174.0782046 321.17668733 183.60042648 340.8605957 192.58032227 C343.93979545 193.99511503 347.00518096 195.43577808 350.06713867 196.88745117 C379.10459859 210.59814537 408.93199364 222.97736009 439.07104492 234.05541992 C440.17303223 234.46163574 441.27501953 234.86785156 442.41040039 235.28637695 C504.29670704 257.99399151 564.60936511 272.48121418 630.69604492 273.61791992 C633.07105051 273.66123457 635.44605058 273.70485235 637.82104492 273.7487793 C643.57098624 273.85447995 649.32098371 273.95646763 655.07104492 274.05541992 C654.52415275 279.86611633 653.67519329 285.48114552 652.35620117 291.16479492 C652.18546585 291.91613205 652.01473053 292.66746918 651.83882141 293.4415741 C651.27738468 295.89786178 650.70671503 298.35184497 650.13354492 300.80541992 C649.93408264 301.66265656 649.73462036 302.51989319 649.52911377 303.40310669 C629.93613858 387.34935506 600.59575691 468.46510988 562.65209961 545.83032227 C561.23502904 548.72091865 559.82785061 551.61609483 558.42260742 554.51245117 C552.69649682 566.23233316 546.41821962 577.59875589 539.89428711 588.8918457 C537.99479337 592.18772677 536.11524628 595.49455938 534.23510742 598.80151367 C526.49126593 612.34433599 518.30451299 625.52275767 509.63354492 638.49291992 C509.17899933 639.17312195 508.72445374 639.85332397 508.25613403 640.55413818 C500.08884142 652.74521533 491.70959034 664.79851413 482.75854492 676.43041992 C481.94861084 677.48567871 481.94861084 677.48567871 481.12231445 678.56225586 C472.61632707 689.59026728 463.75492974 700.32334044 454.72729492 710.92651367 C450.46634832 715.93407704 446.27216753 720.99766927 442.07104492 726.05541992 C441.07104492 723.05541992 441.07104492 723.05541992 441.84936523 720.93457031 C442.27830078 720.09917725 442.70723633 719.26378418 443.14916992 718.40307617 C443.64078613 717.42242188 444.13240234 716.44176758 444.63891602 715.43139648 C445.19401855 714.33794922 445.74912109 713.24450195 446.32104492 712.11791992 C486.19228086 631.30657382 514.16999632 544.2022335 553.07104492 357.05541992 C552.50133469 356.94832199 551.93162445 356.84122406 551.34465027 356.73088074 C497.86937448 346.66047832 445.7565401 331.95687679 395.07104492 312.05541992 C393.73269813 311.532714 392.39431739 311.01009496 391.0559082 310.48754883 C370.52820716 302.45745109 350.23061382 293.96631576 330.07104492 285.05541992 C328.89977051 284.54188965 327.72849609 284.02835937 326.52172852 283.49926758 C308.16528846 275.44882054 290.12724813 266.83422197 272.13116455 258.0151062 C266.02754656 255.02663815 259.89732492 252.09593972 253.75854492 249.18041992 C237.31931622 241.34823249 221.07198864 233.15938927 204.99584961 224.60766602 C202.18977174 223.11843036 199.38020112 221.63602439 196.56962585 220.15530396 C181.85195187 212.39932767 167.21264712 204.54762563 152.76635742 196.29370117 C147.56521756 193.3241006 142.32907553 190.42069361 137.08642578 187.52514648 C124.36510684 180.49842347 111.76577 173.29049439 99.24194336 165.91821289 C95.86909462 163.93678112 92.49020611 161.96584905 89.11010742 159.99682617 C65.54181948 146.2570922 42.26364801 132.05782286 19.04370117 117.73901367 C17.59181396 116.85318604 17.59181396 116.85318604 16.1105957 115.94946289 C13.91222623 114.57958736 11.75571583 113.18492049 9.60571289 111.7434082 C9.02567001 111.36354263 8.44562714 110.98367706 7.8480072 110.59230042 C6.21715346 109.52295911 4.59771791 108.43626312 2.97900391 107.34863281 C0.19042792 105.75943211 0.19042792 105.75943211 -2.47216797 106.64208984 C-3.68827759 107.34168823 -3.68827759 107.34168823 -4.92895508 108.05541992 C-5.78344238 108.54171875 -6.63792969 109.02801758 -7.51831055 109.52905273 C-8.43499512 110.09978516 -9.35167969 110.67051758 -10.29614258 111.25854492 C-11.33496582 111.90210938 -12.37378906 112.54567383 -13.4440918 113.20874023 C-15.10722412 114.24659668 -15.10722412 114.24659668 -16.80395508 115.30541992 C-18.56123419 116.39552258 -20.31944212 117.48411684 -22.07766724 118.57269287 C-23.27445907 119.31381971 -24.47097011 120.05540017 -25.66720581 120.79742432 C-64.47604532 144.86585565 -103.83576547 168.07251132 -143.73852539 190.27856445 C-146.99955081 192.09473701 -150.25737879 193.91655122 -153.51489258 195.73901367 C-174.55787146 207.49449076 -195.7727068 218.91373339 -217.17895508 229.99291992 C-218.31961426 230.58331055 -219.46027344 231.17370117 -220.63549805 231.78198242 C-227.96444947 235.56055839 -235.32721229 239.26706758 -242.70629883 242.94628906 C-246.34251952 244.76020459 -249.97235269 246.58655138 -253.60055542 248.41644287 C-271.42467928 257.40584397 -289.25363625 266.32398699 -307.46899414 274.50073242 C-309.93185528 275.60738637 -312.39209476 276.7188136 -314.84985352 277.83666992 C-339.26675688 288.93681684 -363.97773242 299.21786962 -388.92895508 309.05541992 C-389.62827148 309.3312793 -390.32758789 309.60713867 -391.0480957 309.89135742 C-508.29562758 356.05541992 -508.29562758 356.05541992 -554.92895508 356.05541992 C-541.56464318 436.34906801 -523.61499133 515.07092909 -496.92895508 592.05541992 C-496.67392212 592.79129333 -496.41888916 593.52716675 -496.15612793 594.28533936 C-484.86457466 626.78603089 -472.13516308 658.71591483 -457.92895508 690.05541992 C-457.44378418 691.12727539 -456.95861328 692.19913086 -456.45874023 693.3034668 C-450.76704331 706.05508908 -450.76704331 706.05508908 -444.55004883 718.55151367 C-442.92895508 722.05541992 -442.92895508 722.05541992 -443.92895508 725.05541992 C-450.63288856 718.57703934 -456.81236635 712.00267542 -462.61254883 704.69262695 C-464.11377938 702.82555498 -465.64396658 700.98467974 -467.17895508 699.14526367 C-474.53547606 690.3237768 -481.63631093 681.36777814 -488.42700195 672.10327148 C-489.43782927 670.72504984 -490.45222383 669.34943819 -491.4699707 667.97631836 C-500.82884295 655.34825102 -509.48644884 642.31081588 -517.92895508 629.05541992 C-518.4805127 628.19078125 -519.03207031 627.32614258 -519.6003418 626.43530273 C-534.27758497 603.32835073 -547.54981519 579.46181452 -559.92895508 555.05541992 C-560.29891602 554.33064453 -560.66887695 553.60586914 -561.05004883 552.85913086 C-562.9997873 549.03741585 -564.91533802 545.20041812 -566.8034668 541.34790039 C-567.62692103 539.67062594 -568.45467519 537.99546065 -569.28491211 536.3215332 C-585.10719703 504.37139387 -598.55425843 471.47778715 -610.92895508 438.05541992 C-611.21148132 437.2924762 -611.49400757 436.52953247 -611.78509521 435.74346924 C-656.92895508 313.47296254 -656.92895508 313.47296254 -656.92895508 274.05541992 C-656.34997971 274.04733307 -655.77100433 274.03924622 -655.17448425 274.03091431 C-591.61630719 273.12657213 -534.35115007 265.70899759 -473.93432617 245.71887207 C-472.01150456 245.0827304 -470.0874437 244.45033825 -468.16333008 243.81811523 C-423.2129538 228.96843736 -379.55571797 210.25971321 -336.84106445 189.91430664 C-332.44535578 187.82212652 -328.03839191 185.75405475 -323.63208008 183.68432617 C-298.11610436 171.68552447 -272.79234573 159.36520812 -247.92895508 146.05541992 C-246.9528125 145.53512207 -245.97666992 145.01482422 -244.97094727 144.47875977 C-232.33609959 137.74159937 -219.7764844 130.89343897 -207.33227539 123.81005859 C-200.90185784 120.15418951 -194.43174827 116.58078618 -187.92895508 113.05541992 C-171.41526871 104.09241399 -155.0810958 94.82240138 -138.92211914 85.23510742 C-136.94586689 84.06542946 -134.96560086 82.90289946 -132.98364258 81.74291992 C-104.89109826 65.29725416 -77.05858542 48.40185974 -49.66723633 30.8112793 C-47.68838729 29.54238822 -45.70618784 28.27871698 -43.72192383 27.01831055 C-37.4743831 23.04095371 -31.30592479 18.97308427 -25.21020508 14.76635742 C-23.26901617 13.43564761 -21.32710205 12.1060023 -19.38500977 10.77661133 C-18.06288132 9.86669917 -16.74460218 8.9511723 -15.42993164 8.03051758 C-13.49229118 6.67625784 -11.54069799 5.34466021 -9.58520508 4.01635742 C-9.00387817 3.60195404 -8.42255127 3.18755066 -7.8236084 2.7605896 C-5.12131888 0.95198569 -3.27451886 0.06195847 0 0 Z " fill="#2B2B2B" transform="translate(781.928955078125,113.944580078125)"/>
<path d="M0 0 C4.58825255 4.19608061 7.8292264 8.92823389 11.2265625 14.11328125 C11.81488861 15.00049362 12.40321472 15.88770599 13.0093689 16.80180359 C14.88675304 19.63510408 16.75618866 22.47353937 18.625 25.3125 C21.07328689 29.01840678 23.52462936 32.72228618 25.9765625 36.42578125 C26.87412766 37.78280151 26.87412766 37.78280151 27.78982544 39.16723633 C33.09742155 47.17849669 38.51687325 55.10813553 44 63 C44.64501465 63.93078369 45.2900293 64.86156738 45.95458984 65.82055664 C47.58993039 68.17543777 49.23058508 70.52644852 50.875 72.875 C51.45813965 73.70813721 52.0412793 74.54127441 52.64208984 75.3996582 C57.12095443 81.78225156 61.66807003 88.11310229 66.24780273 94.42358398 C69.85502603 99.39810103 73.40874036 104.4071032 76.9375 109.4375 C87.70630478 124.75652901 98.99285722 139.70047798 110.24658203 154.66455078 C111.87568584 156.83442088 113.49967093 159.0079808 115.12109375 161.18359375 C121.5378854 169.78716045 128.07825323 178.28649397 134.68359375 186.74609375 C137.53642144 190.40028668 140.36740146 194.07052399 143.1875 197.75 C151.03514526 207.96216378 159.01334466 218.05563713 167.15893555 228.03173828 C170.70078014 232.37694742 174.18123439 236.76430913 177.625 241.1875 C182.07035765 246.88880411 186.68920585 252.4202948 191.3828125 257.91796875 C193.79496524 260.74683013 196.15419998 263.61575122 198.5 266.5 C202.24917489 271.10612915 206.07185188 275.643896 209.91845703 280.16845703 C212.77846938 283.5385099 215.59255733 286.94026308 218.375 290.375 C223.0196943 296.07944629 227.8397374 301.62268589 232.671875 307.16796875 C234.82221615 309.63736458 236.95829919 312.11764334 239.078125 314.61328125 C244.48678377 320.98003523 249.9951646 327.20910889 255.70458984 333.30810547 C258.84394953 336.68314971 261.8037156 340.15027608 264.6875 343.75 C268.10245881 348.00480401 271.72160776 351.8679737 275.6640625 355.63671875 C278.28997962 358.29337403 280.71477108 361.08467056 283.16162109 363.90551758 C286.03178259 367.17551964 289.01313684 370.33684846 292 373.5 C293.33089169 374.91260731 294.66161636 376.325372 295.9921875 377.73828125 C296.66217773 378.44936035 297.33216797 379.16043945 298.02246094 379.89306641 C299.88047287 381.87265196 301.72758742 383.86165865 303.5703125 385.85546875 C311.73227369 394.66606262 320.12871461 403.20947286 328.68017578 411.64331055 C333.08654418 416.0057241 337.322827 420.42267741 341.35986328 425.12841797 C344.08591279 428.23914967 347.00398518 431.14878393 349.9375 434.0625 C350.50662109 434.63548828 351.07574219 435.20847656 351.66210938 435.79882812 C354.62339754 438.75346918 357.64121869 441.58461286 360.81640625 444.30859375 C366.72221138 449.41575921 372.10251613 455.05861486 377.578125 460.6171875 C381.93630279 465.01547122 386.33863406 469.26268172 391.0390625 473.29296875 C395.37124633 477.06421245 399.48283099 481.08203603 403.64453125 485.0390625 C407.74937892 488.92628571 411.91577988 492.71532252 416.18701172 496.41894531 C418.60368985 498.52646048 420.95726063 500.69924232 423.3125 502.875 C427.85524685 507.02245258 432.54119962 510.93232695 437.328125 514.79296875 C439.8985905 516.91623338 442.35919363 519.11811849 444.8125 521.375 C449.21983792 525.39243125 453.83156507 529.05456552 458.54394531 532.70043945 C462.82878221 536.03302621 466.96657285 539.50114634 471.0625 543.0625 C476.88558014 548.10745812 482.88260527 552.87281371 489.03417969 557.51123047 C491.31453125 559.23820312 493.58320621 560.97995887 495.8515625 562.72265625 C507.09491869 571.34938441 518.44440923 579.79639383 530 588 C530.79229004 588.56428711 531.58458008 589.12857422 532.40087891 589.70996094 C541.80869344 596.39971365 551.30125486 602.95551275 560.9375 609.3125 C562.18926025 610.1487793 562.18926025 610.1487793 563.46630859 611.00195312 C564.2495752 611.51306641 565.0328418 612.02417969 565.83984375 612.55078125 C566.86646118 613.22620972 566.86646118 613.22620972 567.91381836 613.9152832 C570.3700042 615.19238486 572.2306751 615.80288165 575 616 C577.3014578 615.0002029 577.3014578 615.0002029 579.44140625 613.31640625 C580.26624512 612.7224707 581.09108398 612.12853516 581.94091797 611.51660156 C582.80604004 610.87174805 583.67116211 610.22689453 584.5625 609.5625 C586.36778038 608.25553025 588.1737666 606.9495349 589.98046875 605.64453125 C590.84849121 605.01111816 591.71651367 604.37770508 592.61083984 603.72509766 C595.48442236 601.65022191 598.40825453 599.68902309 601.375 597.75 C619.13744727 586.00746164 636.21822598 573.09486912 653 560 C653.54398438 559.57686523 654.08796875 559.15373047 654.6484375 558.71777344 C667.10589489 549.02305861 679.40019506 539.12562081 691.41381836 528.88500977 C694.77888283 526.01917257 698.18647553 523.2145827 701.625 520.4375 C706.32355951 516.61736683 710.78213766 512.58288744 715.234375 508.48046875 C718.00517601 505.99535768 720.85051362 503.64555667 723.75 501.3125 C727.51886239 498.27068057 730.9894778 495.12869506 734.35546875 491.65234375 C736.00841603 489.99154399 737.72251638 488.46377609 739.5 486.9375 C745.30722447 481.92471279 750.86148791 476.63530964 756.4513092 471.38320923 C758.35866319 469.59969605 760.27164128 467.82329975 762.18992615 466.05162048 C771.32168577 457.60072043 780.2105246 448.93790106 789 440.1328125 C790.37412264 438.75936629 791.74839345 437.38606831 793.12280273 436.01290894 C795.9713484 433.16582083 798.81812037 430.31697492 801.66357422 427.46679688 C805.29216746 423.83246916 808.92528556 420.20270298 812.5597229 416.57422066 C815.38580789 413.75176173 818.20949165 410.92691019 821.0324707 408.10134506 C822.37124488 406.76190925 823.71074715 405.42320073 825.05102539 404.08526993 C834.16072138 395.0267388 834.16072138 395.0267388 842.74511719 385.47506714 C844.39249596 383.53863589 846.1718687 381.76509229 848 380 C851.27202128 376.7784145 854.29316055 373.41407855 857.28515625 369.93359375 C858.96004299 368.04505403 860.69947587 366.26844352 862.5 364.5 C865.48893201 361.55735676 868.24652298 358.47644293 870.984375 355.30078125 C873.44480349 352.49226889 875.96978578 349.74541506 878.5 347 C882.1450432 343.04085612 885.74260764 339.04871498 889.265625 334.98046875 C891.27264538 332.68866845 893.32402851 330.44003248 895.375 328.1875 C898.48528851 324.74621795 901.46478312 321.23678702 904.375 317.625 C907.61952732 313.6117345 910.98749324 309.77586874 914.5 306 C918.73073067 301.44753244 922.72275162 296.75386472 926.62109375 291.9140625 C929.35905153 288.56017662 932.17219888 285.27810205 935 282 C939.32268397 276.98354357 943.55779448 271.90816411 947.73046875 266.765625 C950.24100157 263.70631822 952.80527451 260.69700317 955.375 257.6875 C959.72016546 252.58757984 963.89788814 247.37560776 968.01513672 242.09057617 C970.79759285 238.52086675 973.62139426 234.99325465 976.5 231.5 C981.29858469 225.66826807 985.9543597 219.72973242 990.60595703 213.78076172 C992.39188149 211.49940743 994.18432533 209.22322494 995.97680664 206.94702148 C1005.53795292 194.79941999 1015.08239137 182.64074289 1024.32226562 170.24609375 C1027.8060893 165.57657975 1031.3330553 160.94195585 1034.87597656 156.31713867 C1041.65530993 147.46402296 1048.29062028 138.52850339 1054.78515625 129.46484375 C1058.164343 124.75436766 1061.61209566 120.09592336 1065.0625 115.4375 C1071.0063487 107.39890286 1076.80536719 99.26763001 1082.54101562 91.07958984 C1084.48407241 88.31001861 1086.43759008 85.54790999 1088.39135742 82.78588867 C1090.41515535 79.92353172 1092.434408 77.05798069 1094.45361328 74.19238281 C1095.4741505 72.74552076 1096.49593504 71.29953758 1097.51904297 69.85449219 C1113.78431955 46.87779003 1129.45472229 23.46835473 1145 0 C1145.66 0.33 1146.32 0.66 1147 1 C1119.84090525 75.93390105 1088.78412347 150.10077885 1049.17578125 219.39453125 C1046.57945081 223.94895715 1044.06780559 228.54320417 1041.58520508 233.16040039 C1035.06250873 245.28644298 1028.08255622 257.10002069 1020.91357422 268.85400391 C1019.0868305 271.85724702 1017.27808138 274.87062639 1015.47265625 277.88671875 C1006.98532884 291.97094536 997.99449282 305.69417257 988.875 319.375 C988.00060776 320.6880159 988.00060776 320.6880159 987.10855103 322.02755737 C969.58174203 348.31453253 951.24545384 373.94618612 932 399 C931.04922466 400.24199271 930.09867404 401.48415751 929.1484375 402.7265625 C919.45964312 415.38009048 909.55866607 427.84952084 899.4765625 440.19140625 C898.16952459 441.7923548 896.86576644 443.39597976 895.5625 445 C887.60846242 454.77210331 879.51889762 464.41004358 871.046875 473.73828125 C869.1749031 475.80673875 867.3313661 477.89560914 865.5 480 C862.1389752 483.8566598 858.72180556 487.66061394 855.29296875 491.45703125 C853.85298213 493.05401811 852.41740084 494.65499983 850.98828125 496.26171875 C835.98824753 513.09032801 820.11090866 529.04967188 804.16113281 544.96923828 C801.08735306 548.03726381 798.01816621 551.10983906 794.95023346 554.1837101 C792.55326644 556.58430608 790.15390417 558.9824967 787.75382996 561.37998581 C786.62093547 562.51222047 785.48876307 563.64517818 784.3573761 564.77891922 C778.93094975 570.2141812 773.50574362 575.60457869 767.65356445 580.58798218 C764.8588368 582.97446626 762.18788949 585.49470606 759.5 588 C755.36887891 591.8321857 751.20956509 595.61639565 746.9453125 599.30078125 C744.6633471 601.29406428 742.42771426 603.33493027 740.1875 605.375 C735.89877512 609.24594954 731.47891295 612.91371894 726.98828125 616.546875 C723.59249947 619.33452331 720.26321877 622.19203996 716.9375 625.0625 C712.27493883 629.07953351 707.56622944 633.01084343 702.734375 636.82421875 C700.60469296 638.51883718 698.49344798 640.22955672 696.390625 641.95703125 C687.80281209 649.00671255 679.08095573 655.81839905 670.14208984 662.41699219 C667.86773549 664.09774369 665.59974156 665.78685941 663.33203125 667.4765625 C654.07425575 674.35809103 644.73547784 681.08676464 635.17089844 687.53564453 C633.64098226 688.56763252 632.11317993 689.60275771 630.58691406 690.64013672 C618.74973247 698.68207017 606.75120056 706.32934351 594.40771484 713.56982422 C591.96786349 715.019089 589.55471283 716.50589621 587.14453125 718.00390625 C586.37206055 718.47731445 585.59958984 718.95072266 584.80371094 719.43847656 C583.35092647 720.32913789 581.90447241 721.23024178 580.46582031 722.14355469 C575.65133463 725.06004502 575.65133463 725.06004502 572.62182617 724.78076172 C567.26987009 723.18698618 562.56612258 720.08526988 557.75 717.3125 C557.14806824 716.96830017 556.54613647 716.62410034 555.92596436 716.26947021 C545.22280136 710.12751907 534.87817016 703.4875257 524.625 696.625 C523.94465698 696.16976959 523.26431396 695.71453918 522.56335449 695.24551392 C501.13470798 680.86736795 480.35412031 665.5640705 460.06640625 649.62109375 C458.12178524 648.09554041 456.17149546 646.57763232 454.21875 645.0625 C447.36511629 639.73303817 440.67550207 634.24795023 434.07421875 628.609375 C431.29266912 626.23730965 428.46651339 623.92507288 425.625 621.625 C415.59865341 613.44944704 405.89370955 604.91342934 396.42456055 596.10058594 C393.63188499 593.50165956 390.82097379 590.935324 387.9375 588.4375 C380.36676388 581.87512831 373.00207668 575.09844007 365.98191833 567.94947815 C364.14718969 566.14478048 362.262683 564.4656229 360.30493164 562.79663086 C355.80362477 558.88266776 351.58190441 554.72614149 347.37109375 550.50390625 C346.57776138 549.71153061 345.78442902 548.91915497 344.96705627 548.10276794 C343.30110919 546.43749717 341.63640744 544.77097971 339.97290039 543.10327148 C337.44463866 540.56965378 334.91108339 538.04141833 332.37695312 535.51367188 C330.7496793 533.88573717 329.12271575 532.25749225 327.49609375 530.62890625 C326.74798935 529.88282608 325.99988495 529.13674591 325.22911072 528.36805725 C321.1543595 524.27532737 317.24623369 520.0958298 313.48890686 515.70909119 C311.43790992 513.35478623 309.23632278 511.17747218 307 509 C303.51566595 505.55223317 300.21787184 502.04086066 297.03515625 498.31640625 C294.85187446 495.83140413 292.60084617 493.42133345 290.33666992 491.01025391 C285.07371854 485.40574741 280.05000811 479.7163105 275.2421875 473.7109375 C272.76091246 470.710929 270.15094543 467.84886566 267.5 465 C263.32366122 460.5008039 259.35482671 455.88249058 255.50390625 451.1015625 C253.00680795 448.00843293 250.47754388 444.94430706 247.94189453 441.8828125 C241.6118026 434.23430583 235.40263505 426.50531774 229.3046875 418.67089844 C228.02194647 417.02810659 226.73133784 415.39187447 225.4375 413.7578125 C214.03163242 399.34331056 202.77631877 384.79215046 192.22167969 369.73974609 C190.91646234 367.88103729 189.60343808 366.0280241 188.2890625 364.17578125 C185.75372059 360.60017747 183.22861268 357.0175014 180.70849609 353.43115234 C179.5223322 351.74326722 178.33508004 350.05614656 177.14697266 348.36962891 C167.11298113 334.11292562 157.41062801 319.67552195 148 305 C147.49049805 304.2073877 146.98099609 303.41477539 146.45605469 302.59814453 C132.67660348 281.12003396 119.47730383 259.25903919 107 237 C106.42572266 235.98147949 105.85144531 234.96295898 105.25976562 233.91357422 C96.3507395 218.10502334 87.83090348 202.12990551 79.54443359 185.98730469 C77.78729977 182.58858679 75.98979966 179.21313024 74.18359375 175.84033203 C48.18586015 127.18038264 27.31520381 75.6100518 8 24 C7.64104645 23.0414209 7.64104645 23.0414209 7.27484131 22.06347656 C5.85840185 18.27596723 4.45453385 14.48404331 3.0625 10.6875 C2.73813965 9.80408936 2.4137793 8.92067871 2.07958984 8.01049805 C0 2.24985644 0 2.24985644 0 0 Z " fill="#2B2B2B" transform="translate(208,726)"/>
<path d="M0 0 C0 0.66 0 1.32 0 2 C-0.58676514 2.32572998 -1.17353027 2.65145996 -1.77807617 2.98706055 C-21.99795291 14.24039064 -41.77871493 25.68135353 -60 40 C-61.37865234 41.05960938 -61.37865234 41.05960938 -62.78515625 42.140625 C-100.43777665 71.49892807 -120.16045863 110.21553817 -126.65673828 157.17773438 C-127.45808967 163.76637028 -127.81978803 170.36819937 -128 177 C-131.40740533 176.42508989 -132.89529409 175.39826383 -135.19921875 172.859375 C-139.07340836 168.81942814 -143.29430494 165.53876696 -147.8125 162.25 C-148.64217285 161.64365723 -149.4718457 161.03731445 -150.32666016 160.41259766 C-157.87681318 154.96646832 -165.66561243 150.03351937 -173.703125 145.34326172 C-175.98898813 144.00643998 -178.2600944 142.64678014 -180.53125 141.28515625 C-205.26731128 126.63833568 -231.49652704 114.08363283 -258 103 C-258.62120728 102.74007263 -259.24241455 102.48014526 -259.88244629 102.21234131 C-268.90683253 98.4387537 -277.9470307 94.70450743 -287 91 C-273.69188571 63.16159766 -219.29041573 45.82461339 -192.65429688 36.35498047 C-189.43926644 35.22758809 -186.22053678 34.11155661 -183 33 C-182.02385742 32.6596875 -181.04771484 32.319375 -180.04199219 31.96875 C-137.60206332 17.30169392 -92.51377353 9.15719829 -48 4 C-46.19813232 3.78585449 -46.19813232 3.78585449 -44.35986328 3.56738281 C-13.40011439 -0.10015033 -13.40011439 -0.10015033 0 0 Z " fill="#FF5757" transform="translate(592,553)"/>
<path d="" fill="#2B2B2B" transform="translate(0,0)"/>
</svg>
