<?xml version="1.0" encoding="UTF-8"?>
<svg version="1.1" xmlns="http://www.w3.org/2000/svg" width="473" height="89">
<path d="M0 0 C41.24163584 -0.04573584 82.48326876 -0.08099803 123.72492491 -0.10213066 C128.58924035 -0.1046322 133.45355573 -0.10722083 138.31787109 -0.10986328 C139.28630566 -0.1103879 140.25474022 -0.11091252 141.25252129 -0.11145304 C156.95190414 -0.12016562 172.65127241 -0.13594026 188.3506466 -0.15430559 C204.448812 -0.17298096 220.54696974 -0.18411171 236.64514554 -0.18817699 C246.58581163 -0.19092697 256.5264365 -0.19962554 266.46708991 -0.21583293 C273.27540109 -0.22637068 280.08369084 -0.22960795 286.8920096 -0.22700275 C290.82535324 -0.22571643 294.75862464 -0.22774601 298.69195557 -0.23841095 C302.28808735 -0.24809089 305.88409782 -0.24866947 309.480235 -0.24179779 C311.40741337 -0.24054276 313.33459018 -0.24921566 315.26174819 -0.25816262 C316.96065159 -0.25218947 316.96065159 -0.25218947 318.69387627 -0.24609566 C319.67735192 -0.2468551 320.66082758 -0.24761454 321.67410553 -0.24839699 C324 -0 324 -0 326 2 C326.26742554 4.99168396 326.26742554 4.99168396 326.29052734 8.88061523 C326.29724457 9.58809906 326.30396179 10.29558289 326.31088257 11.02450562 C326.32992082 13.36927259 326.33378958 15.71375425 326.3359375 18.05859375 C326.34236118 19.68522765 326.34908921 21.31186038 326.35610962 22.93849182 C326.3680968 26.35070475 326.37178895 29.76281632 326.37060547 33.17504883 C326.37040215 37.5513586 326.39771098 41.92701993 326.43214989 46.30317593 C326.45436734 49.66346736 326.45844461 53.02360144 326.45738602 56.38395882 C326.45974951 57.99754129 326.46861499 59.61112761 326.48405075 61.22463799 C326.50360871 63.48021978 326.49791457 65.73438653 326.48583984 67.98999023 C326.48868988 69.27413315 326.49153992 70.55827606 326.49447632 71.8813324 C326 75 326 75 324.31150627 76.67114693 C321.49751165 78.28887362 319.75741435 78.3768778 316.52142334 78.38031673 C315.40123936 78.38875668 314.28105537 78.39719662 313.12692642 78.40589231 C311.89620281 78.39988227 310.6654792 78.39387222 309.39746094 78.38768005 C307.43646265 78.39575836 307.43646265 78.39575836 305.43584824 78.40399987 C301.80403327 78.4184905 298.17244453 78.41419859 294.54061699 78.40683305 C290.6250786 78.40211263 286.70958995 78.41460117 282.79406738 78.42485046 C275.12235204 78.44206547 267.45071849 78.44287296 259.77898884 78.43763756 C253.54531841 78.43359995 247.3116722 78.43503454 241.07800293 78.44038582 C239.74837481 78.44150845 239.74837481 78.44150845 238.39188552 78.44265376 C236.59127457 78.4441852 234.79066363 78.44572355 232.9900527 78.44726873 C216.09644027 78.46100333 199.20287413 78.45554915 182.30926275 78.44408352 C166.84424202 78.43414822 151.37934088 78.44709523 135.91433859 78.47101771 C120.04428601 78.49538231 104.1742892 78.50502321 88.30421829 78.49836498 C79.39056165 78.49486713 70.47699703 78.49714218 61.56335449 78.51461601 C53.97605617 78.52930497 46.38891467 78.53001685 38.80161953 78.5125451 C34.92868831 78.50400564 31.05603765 78.50195684 27.18312073 78.51719666 C22.9893638 78.53349506 18.79628981 78.51895907 14.60253906 78.50120544 C13.37181545 78.51081045 12.14109184 78.52041546 10.87307358 78.53031152 C9.1927976 78.51559009 9.1927976 78.51559009 7.47857666 78.50057125 C6.02598135 78.50041025 6.02598135 78.50041025 4.54404068 78.50024599 C1.24068139 77.85069182 0.04819567 76.62401413 -2 74 C-2.49447632 70.88842773 -2.49447632 70.88842773 -2.48583984 67.18359375 C-2.49153488 66.16823044 -2.49153488 66.16823044 -2.49734497 65.13235474 C-2.50473967 62.90026138 -2.48338546 60.66947717 -2.4609375 58.4375 C-2.45855227 56.88338372 -2.45764792 55.32926451 -2.4581604 53.77514648 C-2.45503426 50.52016105 -2.43848415 47.26561667 -2.41162109 44.01074219 C-2.37764134 39.84099967 -2.36999265 35.67174159 -2.37151146 31.50187683 C-2.37096728 28.2933694 -2.35999238 25.08496762 -2.34550858 21.87649536 C-2.33914977 20.33912963 -2.33520383 18.80175195 -2.33372116 17.26437378 C-2.32937829 15.11484446 -2.31185685 12.9658256 -2.29052734 10.81640625 C-2.27909195 8.98251343 -2.27909195 8.98251343 -2.26742554 7.11157227 C-2.00817219 4.09508581 -1.41449378 2.59731815 0 0 Z M15 15 C15 29.85 15 44.7 15 60 C16.65 60 18.3 60 20 60 C20 53.07 20 46.14 20 39 C24.29 39 28.58 39 33 39 C33.66 40.98 34.32 42.96 35 45 C36.2852478 47.71612909 37.79333629 50.28363314 39.3125 52.875 C39.88000977 53.90753906 39.88000977 53.90753906 40.45898438 54.9609375 C41.70766096 57.18851137 41.70766096 57.18851137 44 60 C46.70147683 60.59762686 46.70147683 60.59762686 49 60 C47.29593088 53.96002168 44.21180056 49.02892716 40.92578125 43.74609375 C40.52230469 43.06417969 40.11882813 42.38226563 39.703125 41.6796875 C39.14093262 40.76292236 39.14093262 40.76292236 38.56738281 39.82763672 C38 38 38 38 38.81958008 35.91137695 C39.20911865 35.28062256 39.59865723 34.64986816 40 34 C43.24852344 27.79242551 46.00178934 21.72568465 48 15 C46.02 15 44.04 15 42 15 C41.54560547 16.44632813 41.54560547 16.44632813 41.08203125 17.921875 C40.65971701 19.19820249 40.23649146 20.47422869 39.8125 21.75 C39.40644531 23.00296875 39.00039063 24.2559375 38.58203125 25.546875 C36.83550625 29.35904315 35.59671351 30.89158173 32 33 C28.88671875 33.609375 28.88671875 33.609375 25.6875 33.75 C22.8721875 33.87375 22.8721875 33.87375 20 34 C20 27.73 20 21.46 20 15 C18.35 15 16.7 15 15 15 Z M65 15 C65 29.85 65 44.7 65 60 C66.65 60 68.3 60 70 60 C70 54.39 70 48.78 70 43 C76.86389541 42.38400939 76.86389541 42.38400939 81 44 C85.23237974 48.28104376 88.05031807 53.80467545 91 59 C92.12534105 60.35618499 92.12534105 60.35618499 95.0625 60.0625 C96.031875 60.041875 97.00125 60.02125 98 60 C97.31164062 58.93072266 97.31164062 58.93072266 96.609375 57.83984375 C93.27007695 52.62745204 90.00642459 47.41156426 87 42 C87.8353125 41.9071875 87.8353125 41.9071875 88.6875 41.8125 C92.48333226 40.47882921 95.21170413 37.57659173 97 34 C97.54644038 29.01933027 97.54204675 25.1041693 95.3125 20.5625 C92.34515712 17.2743633 89.79422474 15.2281002 85.32104492 14.65942383 C84.38365479 14.67513428 83.44626465 14.69084473 82.48046875 14.70703125 C81.09831177 14.71827026 81.09831177 14.71827026 79.68823242 14.72973633 C78.53299072 14.75704834 77.37774902 14.78436035 76.1875 14.8125 C72.495625 14.874375 68.80375 14.93625 65 15 Z M114 15 C114 29.85 114 44.7 114 60 C123.24 60 132.48 60 142 60 C142 58.35 142 56.7 142 55 C134.41 55 126.82 55 119 55 C119 49.72 119 44.44 119 39 C125.93 39 132.86 39 140 39 C140 37.35 140 35.7 140 34 C133.07 34 126.14 34 119 34 C119 29.05 119 24.1 119 19 C126.26 19 133.52 19 141 19 C141 17.68 141 16.36 141 15 C132.09 15 123.18 15 114 15 Z M172 15 C167.92661478 23.65297398 164.07597612 32.37006842 160.42041016 41.20605469 C159.61022571 43.16064331 158.79153558 45.11154061 157.97265625 47.0625 C157.45260959 48.31489027 156.9330587 49.56748655 156.4140625 50.8203125 C155.9495166 51.93680176 155.4849707 53.05329102 155.00634766 54.20361328 C153.83069263 56.97513678 153.83069263 56.97513678 154 60 C155.65 60 157.3 60 159 60 C160.32 56.7 161.64 53.4 163 50 C170.59 49.67 178.18 49.34 186 49 C186.99 51.97 187.98 54.94 189 58 C189.33 58.66 189.66 59.32 190 60 C191.65 60 193.3 60 195 60 C192.74630616 51.27947949 189.30000084 43.06956145 185.84716797 34.77416992 C184.86506252 32.41361461 183.8910046 30.04985329 182.91796875 27.68554688 C182.29733785 26.18470435 181.67626077 24.68404624 181.0546875 23.18359375 C180.61719681 22.12282875 180.61719681 22.12282875 180.17086792 21.04063416 C178.97293242 17.78156086 178.97293242 17.78156086 177 15 C175.33382885 14.95936168 173.66611905 14.957279 172 15 Z M205 15 C205 16.32 205 17.64 205 19 C209.95 19 214.9 19 220 19 C220 32.53 220 46.06 220 60 C221.65 60 223.3 60 225 60 C225 46.47 225 32.94 225 19 C230.28 19 235.56 19 241 19 C241 17.68 241 16.36 241 15 C229.12 15 217.24 15 205 15 Z M255 15 C255 29.85 255 44.7 255 60 C256.65 60 258.3 60 260 60 C260 45.15 260 30.3 260 15 C258.35 15 256.7 15 255 15 Z M275 15 C275.72234879 20.04746825 277.69256988 24.5468541 279.59765625 29.23828125 C279.95137802 30.11904831 280.30509979 30.99981537 280.66954041 31.90727234 C281.79647947 34.71066407 282.92940049 37.51159336 284.0625 40.3125 C284.82917224 42.2166374 285.59545281 44.12093255 286.36132812 46.02539062 C288.23635117 50.68543415 290.1167416 55.34327887 292 60 C293.65 60 295.3 60 297 60 C300.21743246 52.11789171 303.42914689 44.23349096 306.63623047 36.34716797 C307.77448046 33.55350392 308.91852731 30.76237123 310.06640625 27.97265625 C310.60695509 26.6485127 311.14733992 25.32430218 311.6875 24 C312.37392578 22.329375 312.37392578 22.329375 313.07421875 20.625 C314.16629994 17.99237737 314.16629994 17.99237737 314 15 C312.35 15 310.7 15 309 15 C304.38 26.88 299.76 38.76 295 51 C292.48380664 45.96761329 290.22123967 41.28318773 288.203125 36.09375 C287.9646283 35.48358032 287.72613159 34.87341064 287.48040771 34.24475098 C286.73338083 32.33119728 285.99159441 30.41566463 285.25 28.5 C284.73862977 27.18736417 284.22691369 25.87486303 283.71484375 24.5625 C282.47316447 21.37630411 281.23498852 18.18879389 280 15 C278.35 15 276.7 15 275 15 Z " fill="#0C0C0C" transform="translate(6,6)"/>
<path d="M0 0 C4.62 0 9.24 0 14 0 C14 5.28 14 10.56 14 16 C20.94775149 14.89060129 20.94775149 14.89060129 22.7421875 10.99609375 C23.11601562 9.82175781 23.48984375 8.64742187 23.875 7.4375 C24.26429688 6.26058594 24.65359375 5.08367188 25.0546875 3.87109375 C25.36664063 2.92363281 25.67859375 1.97617187 26 1 C27 0 27 0 30.37890625 -0.09765625 C31.77347077 -0.09098369 33.16801743 -0.07902532 34.5625 -0.0625 C35.62887695 -0.05573242 35.62887695 -0.05573242 36.71679688 -0.04882812 C38.47790013 -0.03700864 40.23896036 -0.01907263 42 0 C40.16243558 7.14071085 37.45685235 13.40101607 34.01171875 19.921875 C32.53800621 24.40560274 33.87603696 26.75978244 35.92553711 30.84472656 C36.96289266 32.83052858 38.03631581 34.79190724 39.125 36.75 C43 43.73572664 43 43.73572664 43 46 C37.72 46 32.44 46 27 46 C25.66161267 43.54429825 24.32913768 41.08570084 23 38.625 C22.6184375 37.92632812 22.236875 37.22765625 21.84375 36.5078125 C19 31.2265625 19 31.2265625 19 29 C17.35 29 15.7 29 14 29 C14 34.61 14 40.22 14 46 C9.38 46 4.76 46 0 46 C0 30.82 0 15.64 0 0 Z " fill="#21D27A" transform="translate(427,20)"/>
<path d="M0 0 C10.56 0 21.12 0 32 0 C32 3.63 32 7.26 32 11 C26.06 11 20.12 11 14 11 C14 12.98 14 14.96 14 17 C19.28 17 24.56 17 30 17 C30 20.96 30 24.92 30 29 C24.72 29 19.44 29 14 29 C14 30.98 14 32.96 14 35 C20.27 35 26.54 35 33 35 C33 38.63 33 42.26 33 46 C22.11 46 11.22 46 0 46 C0 30.82 0 15.64 0 0 Z " fill="#0AD26E" transform="translate(387,20)"/>
<path d="M0 0 C13.86 0 27.72 0 42 0 C42 4.29 42 8.58 42 13 C37.38 13 32.76 13 28 13 C28 23.89 28 34.78 28 46 C23.38 46 18.76 46 14 46 C14 35.11 14 24.22 14 13 C9.38 13 4.76 13 0 13 C0 8.71 0 4.42 0 0 Z " fill="#18D276" transform="translate(339,20)"/>
<path d="M0 0 C3.96 0 7.92 0 12 0 C12 5.61 12 11.22 12 17 C14.31 17 16.62 17 19 17 C19.99 17.66 20.98 18.32 22 19 C21.34 19.66 20.68 20.32 20 21 C19.34 20.67 18.68 20.34 18 20 C17.7525 20.78375 17.505 21.5675 17.25 22.375 C16 25 16 25 12 27 C12 32.94 12 38.88 12 45 C8.04 45 4.08 45 0 45 C0 30.15 0 15.3 0 0 Z " fill="#06D16B" transform="translate(428,21)"/>
<path d="M0 0 C2.206875 -0.04125 4.41375 -0.0825 6.6875 -0.125 C8.54955078 -0.15980469 8.54955078 -0.15980469 10.44921875 -0.1953125 C14.70865677 0.03898002 17.61989958 0.76266859 20.8125 3.625 C22.53680331 7.07360662 22.79019 10.27798354 22 14 C19.79846699 16.95634433 18.31094792 18.64083619 14.71875 19.625 C11.67372672 20.04500321 8.76048718 20.09626909 5.6875 20.0625 C3.810625 20.041875 1.93375 20.02125 0 20 C0 13.4 0 6.8 0 0 Z " fill="#1B1B1B" transform="translate(76,25)"/>
<path d="M0 0 C3.25949696 3.75092881 4.85806118 8.07240903 6.6875 12.625 C7.00783203 13.40101562 7.32816406 14.17703125 7.65820312 14.9765625 C10 20.7286947 10 20.7286947 10 23 C3.73 23 -2.54 23 -9 23 C-6.81966188 14.88429701 -3.65987185 7.55662861 0 0 Z " fill="#2F2F2F" transform="translate(180,28)"/>
<path d="M0 0 C7.92 0.33 15.84 0.66 24 1 C24 3.97 24 6.94 24 10 C21.77090129 10.02714735 19.54170633 10.04646254 17.3125 10.0625 C16.07113281 10.07410156 14.82976562 10.08570313 13.55078125 10.09765625 C10.53764546 10.01478673 7.91724661 9.70839449 5 9 C5 7.35 5 5.7 5 4 C4.01 3.67 3.02 3.34 2 3 C1.01 3.99 0.02 4.98 -1 6 C-1.33 5.34 -1.66 4.68 -2 4 C-2.99 4.33 -3.98 4.66 -5 5 C-5 4.01 -5 3.02 -5 2 C-3.35 2 -1.7 2 0 2 C0 1.34 0 0.68 0 0 Z " fill="#07D06C" transform="translate(394,20)"/>
<path d="M0 0 C9.24 0 18.48 0 28 0 C28 0.33 28 0.66 28 1 C23.05 1.33 18.1 1.66 13 2 C12.67 2.99 12.34 3.98 12 5 C11.01 5.495 11.01 5.495 10 6 C9.34786708 8.02463255 9.34786708 8.02463255 9 10 C9.99 10.33 10.98 10.66 12 11 C8.04 11 4.08 11 0 11 C0 7.37 0 3.74 0 0 Z " fill="#0ACF6E" transform="translate(340,21)"/>
<path d="M0 0 C1.17949219 0.01804688 2.35898437 0.03609375 3.57421875 0.0546875 C4.92966797 0.08949219 4.92966797 0.08949219 6.3125 0.125 C6.4375 3.5 6.4375 3.5 6.3125 7.125 C4.3125 9.125 4.3125 9.125 1.0546875 9.3203125 C-0.22148437 9.29710937 -1.49765625 9.27390625 -2.8125 9.25 C-4.73449219 9.22292969 -4.73449219 9.22292969 -6.6953125 9.1953125 C-8.17644531 9.16050781 -8.17644531 9.16050781 -9.6875 9.125 C-9.4090625 7.949375 -9.4090625 7.949375 -9.125 6.75 C-8.42787734 4.15410225 -8.42787734 4.15410225 -9.6875 2.125 C-6.05554504 -0.29630331 -4.30400652 -0.08522785 0 0 Z " fill="#05D06C" transform="translate(409.6875,37.875)"/>
<path d="M0 0 C6.27 0 12.54 0 19 0 C19 3.63 19 7.26 19 11 C13.06 11 7.12 11 1 11 C1 12.98 1 14.96 1 17 C6.28 17 11.56 17 17 17 C17 20.96 17 24.92 17 29 C11.72 29 6.44 29 1 29 C1 30.98 1 32.96 1 35 C0.67 35 0.34 35 0 35 C0 32.36 0 29.72 0 27 C0.99902344 26.93941406 1.99804688 26.87882812 3.02734375 26.81640625 C4.31769531 26.73261719 5.60804688 26.64882813 6.9375 26.5625 C8.22527344 26.48128906 9.51304687 26.40007813 10.83984375 26.31640625 C13.86023957 26.35080812 13.86023957 26.35080812 15 25 C15.33 22.69 15.66 20.38 16 18 C10.72 18 5.44 18 0 18 C0 15.36 0 12.72 0 10 C5.94 10 11.88 10 18 10 C18 7.03 18 4.06 18 1 C12.06 1 6.12 1 0 1 C0 0.67 0 0.34 0 0 Z " fill="#70D1A3" transform="translate(400,20)"/>
<path d="M0 0 C2.31 0 4.62 0 7 0 C7 0.66 7 1.32 7 2 C5.35 2 3.7 2 2 2 C2.11804905 7.94496559 2.24228286 13.88975706 2.37231445 19.83447266 C2.41569395 21.85787416 2.45736678 23.88131299 2.49731445 25.90478516 C2.55494408 28.80903384 2.6186594 31.71309411 2.68359375 34.6171875 C2.70866249 35.97975174 2.70866249 35.97975174 2.73423767 37.36984253 C2.75418289 38.21056305 2.77412811 39.05128357 2.79467773 39.91748047 C2.81022202 40.65916473 2.8257663 41.400849 2.84178162 42.16500854 C2.89473496 44.09674104 2.89473496 44.09674104 4 46 C2.68 46 1.36 46 0 46 C0 30.82 0 15.64 0 0 Z " fill="#2FC279" transform="translate(387,20)"/>
<path d="M0 0 C0.66 0 1.32 0 2 0 C2 10.89 2 21.78 2 33 C1.34 33 0.68 33 0 33 C-0.09087891 31.19015625 -0.09087891 31.19015625 -0.18359375 29.34375 C-0.26807818 27.72915876 -0.35272211 26.11457586 -0.4375 24.5 C-0.47681641 23.70851563 -0.51613281 22.91703125 -0.55664062 22.1015625 C-0.82705218 17.02614559 -1.3127142 12.03624555 -2 7 C-1.34 7 -0.68 7 0 7 C0 4.69 0 2.38 0 0 Z " fill="#32CD85" transform="translate(365,33)"/>
<path d="M0 0 C4.95 0 9.9 0 15 0 C12.25 9.75 12.25 9.75 10 12 C10.33 8.7 10.66 5.4 11 2 C7.7 2 4.4 2 1 2 C1.33 3.32 1.66 4.64 2 6 C0.6875 7.75 0.6875 7.75 -1 9 C-1.66 9 -2.32 9 -3 9 C-2.41321669 5.47930015 -1.64350079 3.28700157 0 0 Z " fill="#42CB89" transform="translate(454,20)"/>
<path d="M0 0 C0.33 0 0.66 0 1 0 C1 3.63 1 7.26 1 11 C-4.28 11 -9.56 11 -15 11 C-15 12.98 -15 14.96 -15 17 C-15.33 17 -15.66 17 -16 17 C-16 14.36 -16 11.72 -16 9 C-15.00097656 8.93941406 -14.00195312 8.87882812 -12.97265625 8.81640625 C-11.03712891 8.69072266 -11.03712891 8.69072266 -9.0625 8.5625 C-7.77472656 8.48128906 -6.48695313 8.40007813 -5.16015625 8.31640625 C-2.13976043 8.35080812 -2.13976043 8.35080812 -1 7 C-0.63239269 4.67182036 -0.29758419 2.3381615 0 0 Z " fill="#73DFAE" transform="translate(416,38)"/>
<path d="M0 0 C0.33 0 0.66 0 1 0 C1 5.28 1 10.56 1 16 C-6.875 16 -6.875 16 -10 15 C-9.1875 13.0625 -9.1875 13.0625 -8 11 C-7.01 10.67 -6.02 10.34 -5 10 C-5.33 11.32 -5.66 12.64 -6 14 C-5.34 14 -4.68 14 -4 14 C-4 13.34 -4 12.68 -4 12 C-2.68 12 -1.36 12 0 12 C0 8.04 0 4.08 0 0 Z " fill="#0BCF71" transform="translate(439,50)"/>
<path d="M0 0 C1.98 0 3.96 0 6 0 C5.67 0.66 5.34 1.32 5 2 C4.01 2.33 3.02 2.66 2 3 C0.33289654 4.49985609 0.33289654 4.49985609 -1 6 C-1.33 5.34 -1.66 4.68 -2 4 C-2.99 4.33 -3.98 4.66 -5 5 C-5 4.01 -5 3.02 -5 2 C-3.35 2 -1.7 2 0 2 C0 1.34 0 0.68 0 0 Z " fill="#0FD273" transform="translate(394,20)"/>
<path d="M0 0 C2 2 2 2 2.4375 4.5 C2.7765556 7.34936529 2.7765556 7.34936529 6 9 C0.25 8.25 0.25 8.25 -2 6 C-1.34 4.02 -0.68 2.04 0 0 Z " fill="#0DCF73" transform="translate(398,48)"/>
<path d="M0 0 C2.64465038 3.1254959 3.84414715 6.08788267 5 10 C4.01 10 3.02 10 2 10 C0.68373308 6.38026598 0 3.90432869 0 0 Z " fill="#4DD196" transform="translate(465,56)"/>
<path d="M0 0 C0.99 0 1.98 0 3 0 C2.01 3.3 1.02 6.6 0 10 C-0.33 10 -0.66 10 -1 10 C-0.67 6.7 -0.34 3.4 0 0 Z " fill="#5BD79D" transform="translate(465,22)"/>
<path d="M0 0 C0.66 0.99 1.32 1.98 2 3 C1.54625 3.433125 1.0925 3.86625 0.625 4.3125 C-1.20024334 6.10798342 -1.20024334 6.10798342 -3 9 C-3.75 7.3125 -3.75 7.3125 -4 5 C-2.0625 2.25 -2.0625 2.25 0 0 Z " fill="#545454" transform="translate(47,37)"/>
<path d="M0 0 C0.33 1.32 0.66 2.64 1 4 C-0.98 4 -2.96 4 -5 4 C-5.33 3.01 -5.66 2.02 -6 1 C-4.7934375 1.0309375 -4.7934375 1.0309375 -3.5625 1.0625 C-1.06645115 1.29633621 -1.06645115 1.29633621 0 0 Z " fill="#26CC80" transform="translate(459,62)"/>
</svg>
